<svg width="50" height="50" viewBox="0 0 50 50" fill="none" xmlns="http://www.w3.org/2000/svg">
<path d="M39.458 35.9777L50 46.5172L46.5172 50L35.9777 39.458C32.0561 42.6017 27.1783 44.3116 22.1522 44.3044C9.92419 44.3044 0 34.3802 0 22.1522C0 9.92419 9.92419 0 22.1522 0C34.3802 0 44.3044 9.92419 44.3044 22.1522C44.3116 27.1783 42.6017 32.0561 39.458 35.9777ZM34.5205 34.1513C37.6443 30.939 39.3888 26.6329 39.3817 22.1522C39.3817 12.6317 31.6703 4.92271 22.1522 4.92271C12.6317 4.92271 4.92271 12.6317 4.92271 22.1522C4.92271 31.6703 12.6317 39.3817 22.1522 39.3817C26.6329 39.3888 30.939 37.6443 34.1513 34.5205L34.5205 34.1513Z" fill="#1A1E1E"/>
</svg>
